<svg xmlns="http://www.w3.org/2000/svg" viewBox="0 0 392.4207 113.2752" width="100%" fill="currentColor" class="u-svg"><g><path d="M46.4445.2639C29.6289,2.1597,4.536,25.8744.5738,42.147c-1.8108,7.4371.5891,14.0426,8.2685,16.4517,18.9235,5.9363,44.0723-21.3754,65.9308-18.9207,4.9117.5516,7.4502,4.4684,6.7626,9.2314-.8868,6.1431-11.6278,8.7958-11.4871,13.1682.1811,5.628,8.4205,3.0317,11.6134,2.1905,34.0224-8.9627,19.143-35.6629.1066-51.3431C71.3548,4.3471,60.441-1.3142,46.4445.2639ZM50.1359,51.7158c-7.5365,1.3717-6.7679,10.369-7.9132,15.9777-2.3855,11.6821-8.0589,16.7619-12.1155,26.603-8.0073,19.4253,17.5644,23.4135,27.5676,14.3623,9.5866-8.6742,7.3345-33.922,5.2296-45.5952-1.3444-7.4556-3.6844-13.0012-12.7685-11.3478Z"></path><path d="M50.1359,51.7158c9.0841-1.6534,11.4241,3.8922,12.7685,11.3478,2.105,11.6732,4.357,36.9211-5.2296,45.5952-10.0033,9.0512-35.575,5.063-27.5676-14.3623,4.0566-9.8411,9.73-14.921,12.1155-26.603,1.1453-5.6087.3767-14.606,7.9132-15.9777Z"></path><path d="M46.4445.2639c13.9965-1.578,24.9103,4.0833,35.3242,12.6611,19.0363,15.6801,33.9157,42.3804-.1066,51.3431-3.1929.8411-11.4323,3.4375-11.6134-2.1905-.1407-4.3724,10.6002-7.0251,11.4871-13.1682.6876-4.763-1.851-8.6798-6.7626-9.2314-21.8586-2.4547-47.0073,24.857-65.9308,18.9207C1.1629,56.1896-1.237,49.5841.5738,42.147,4.536,25.8744,29.6289,2.1597,46.4445.2639Z"></path></g><path d="M209.6288,72.7427v28.5562c0,3.138-2.5587,5.6731-5.6727,5.6731h-5.7693c-3.1382,0-5.6728-2.5351-5.6728-5.6731v-28.0251c0-8.0879-5.4073-15.498-13.325-17.2115-11.0801-2.3898-20.8806,6.0105-20.8806,16.6804v28.5577c0,3.1146-2.5588,5.6731-5.6728,5.6731h-5.7693c-3.1381,0-5.6728-2.5585-5.6728-5.6731v-60.2774c0-7.6281,1.4242-15.0872,4.0554-22.0393,1.038-2.7519,3.6692-4.3934,6.397-4.3934,1.0621,0,2.1243.2655,3.1381.7724l1.9553.9898,1.1104.5793c3.0174,1.569,4.4899,5.1416,3.3072,8.328-1.8588,4.9969-2.8484,10.3317-2.8484,15.7631v.9659c0,.5061.5309.8201.9897.5795,4.8037-2.5593,10.2833-4.0318,16.1009-4.0318,6.2521,0,12.094,1.6657,17.1149,4.5863,10.235,5.9137,17.1148,16.9709,17.1148,29.6198Z"></path><path d="M269.8599,43.1244c-5.1416-2.9686-11.0799-4.6343-17.4286-4.586-18.7564.169-34.2057,16.0525-33.8917,34.8088.3138,18.636,15.5216,33.6263,34.2055,33.6263,5.9141,0,11.4662-1.4964,16.3183-4.1518.5069-.2655,1.0862-.289,1.5931-.0235,1.7622.9169,5.9625,3.1131,7.7006,3.7894,4.2002,1.6167,8.6178-2.1008,8.6178-6.6149v-27.2285c0-12.6489-6.8797-23.7047-17.1149-29.6198ZM256.1005,89.5449c-11.5387,2.1962-21.5324-7.2179-20.3496-18.636.8208-7.8928,7.266-14.339,15.1597-15.1591,11.4179-1.1824,20.8323,8.8111,18.6355,20.3495-1.2793,6.7352-6.7107,12.1428-13.4215,13.4221l-.0241.0235Z"></path><path d="M347.2017,20.2631v21.7257c0,.5061-.5311.8201-.9903.5795-4.9-2.6316-10.5012-4.08-16.4383-4.0318-18.7563.169-34.2058,16.0528-33.8919,34.8091.3139,18.636,15.5214,33.6264,34.2058,33.6264,6.2276,0,12.0694-1.6651,17.1147-4.586,10.2342-5.9152,17.1147-16.9709,17.1147-29.6433V20.2631c0-3.1382-2.5351-5.6728-5.6731-5.6728h-5.7699c-3.138,0-5.6716,2.5346-5.6716,5.6728ZM333.4422,89.5434c-11.5384,2.1962-21.5334-7.2179-20.3495-18.636.8201-7.8928,7.2649-14.339,15.1591-15.1591,11.4181-1.1824,20.8322,8.8111,18.636,20.3495-1.2793,6.7352-6.7118,12.1414-13.4221,13.4206l-.0235.0249Z"></path><path d="M392.4207,44.2115v36.3282c0,7.6287-1.4245,15.0872-4.0564,22.0396-1.448,3.8143-5.9137,5.5044-9.5344,3.6207l-3.0412-1.5683c-3.0427-1.5698-4.5141-5.142-3.3082-8.3285,1.8588-4.9968,2.849-10.3075,2.849-15.7635v-36.3282c0-3.0415,2.3899-5.5279,5.4076-5.6727h6.034c2.9458,0,5.3591,2.2208,5.6496,5.0932v.5795Z"></path></svg>
